<svg width="39" height="39" viewBox="0 0 39 39" fill="none" xmlns="http://www.w3.org/2000/svg">
<path d="M33.0167 6.4708L20.0751 2.06045C19.9189 2.00713 19.7095 1.98047 19.5 1.98047C19.2905 1.98047 19.0811 2.00713 18.9249 2.06045L5.9833 6.4708C5.66719 6.57744 5.4082 6.94307 5.4082 7.27822V25.6509C5.4082 25.986 5.62529 26.4278 5.88809 26.6373L19.0163 36.8672C19.1496 36.97 19.321 37.0233 19.4962 37.0233C19.6714 37.0233 19.8466 36.97 19.9761 36.8672L33.1043 26.6373C33.3671 26.4316 33.5842 25.9898 33.5842 25.6509V7.27822C33.5918 6.94307 33.3328 6.58125 33.0167 6.4708ZM26.4507 12.9759L18.3536 24.1236C18.2967 24.2015 18.2222 24.2649 18.1361 24.3086C18.0501 24.3523 17.955 24.3751 17.8585 24.3751C17.762 24.3751 17.6669 24.3523 17.5808 24.3086C17.4948 24.2649 17.4203 24.2015 17.3634 24.1236L12.5493 17.4967C12.4046 17.2948 12.5493 17.013 12.7969 17.013H14.8992C15.0935 17.013 15.2801 17.1082 15.3943 17.2644L17.8585 20.654L23.6057 12.7397C23.7199 12.5836 23.9027 12.4884 24.1008 12.4884H26.2031C26.4507 12.4922 26.5954 12.774 26.4507 12.9759Z" fill="#0043CE"/>
</svg>
