<svg width="111" height="34" viewBox="0 0 111 34" fill="none" xmlns="http://www.w3.org/2000/svg">
<path d="M107.051 33.5H3.88829C1.74476 33.5 0 31.7444 0 29.5953V4.39895C0 2.249 1.74476 0.5 3.88829 0.5H107.051C109.194 0.5 111 2.249 111 4.39895V29.5953C111 31.7444 109.194 33.5 107.051 33.5Z" fill="#A6A6A6"/>
<path d="M110.204 29.596C110.204 31.3417 108.795 32.7558 107.052 32.7558H3.8882C2.14591 32.7558 0.731689 31.3417 0.731689 29.596V4.39801C0.731689 2.65313 2.14591 1.23413 3.8882 1.23413H107.051C108.795 1.23413 110.203 2.65313 110.203 4.39801L110.204 29.596Z" fill="black"/>
<path d="M24.7719 16.8219C24.7481 14.1629 26.9417 12.8693 27.0421 12.8091C25.7997 10.9916 23.874 10.7433 23.1973 10.7235C21.58 10.5527 20.0112 11.6945 19.1874 11.6945C18.3471 11.6945 17.0784 10.74 15.711 10.7681C13.9515 10.7953 12.3054 11.8175 11.4026 13.4048C9.53944 16.6412 10.929 21.3974 12.714 24.0134C13.6069 25.2947 14.6503 26.7252 16.0161 26.6749C17.3522 26.6196 17.8513 25.8202 19.4636 25.8202C21.0612 25.8202 21.5299 26.6749 22.9227 26.6427C24.3567 26.6196 25.2595 25.3557 26.1212 24.0629C27.1531 22.5944 27.5675 21.1482 27.5839 21.074C27.5502 21.0624 24.799 20.0089 24.7719 16.8219Z" fill="white"/>
<path d="M22.1408 9.00257C22.8594 8.10085 23.3511 6.87407 23.2146 5.62915C22.1745 5.67535 20.8738 6.35102 20.1247 7.23295C19.462 8.0101 18.87 9.2839 19.0229 10.4818C20.1913 10.5692 21.3909 9.89027 22.1408 9.00257Z" fill="white"/>
<path d="M44.1082 26.4908H42.241L41.2181 23.2659H37.6628L36.6885 26.4908H34.8706L38.393 15.5117H40.5686L44.1082 26.4908ZM40.9098 21.9129L39.9848 19.046C39.8869 18.7531 39.7036 18.0634 39.4331 16.9777H39.4002C39.2925 17.4447 39.119 18.1344 38.8805 19.046L37.972 21.9129H40.9098Z" fill="white"/>
<path d="M53.1665 22.4351C53.1665 23.7815 52.8039 24.8457 52.0787 25.627C51.4292 26.3225 50.6226 26.6698 49.6598 26.6698C48.6205 26.6698 47.8739 26.2953 47.4192 25.5462H47.3863V29.7165H45.6333V21.1803C45.6333 20.3338 45.6111 19.4651 45.5684 18.5741H47.1101L47.2079 19.8289H47.2408C47.8254 18.8835 48.7126 18.4116 49.9031 18.4116C50.8339 18.4116 51.6109 18.7803 52.2325 19.5187C52.8557 20.2579 53.1665 21.2298 53.1665 22.4351ZM51.3807 22.4994C51.3807 21.7289 51.208 21.0937 50.861 20.5937C50.482 20.0723 49.973 19.8116 49.335 19.8116C48.9025 19.8116 48.5095 19.9568 48.1584 20.2431C47.8065 20.5318 47.5763 20.9089 47.4685 21.3758C47.4143 21.5936 47.3871 21.7718 47.3871 21.912V23.232C47.3871 23.8079 47.5631 24.2938 47.915 24.6906C48.2669 25.0875 48.7241 25.2855 49.2865 25.2855C49.9467 25.2855 50.4606 25.0297 50.8281 24.5199C51.1965 24.0092 51.3807 23.336 51.3807 22.4994Z" fill="white"/>
<path d="M62.2413 22.4351C62.2413 23.7815 61.8787 24.8457 61.1527 25.627C60.5039 26.3225 59.6973 26.6698 58.7345 26.6698C57.6952 26.6698 56.9486 26.2953 56.4948 25.5462H56.4619V29.7165H54.7089V21.1803C54.7089 20.3338 54.6867 19.4651 54.644 18.5741H56.1856L56.2835 19.8289H56.3164C56.9001 18.8835 57.7873 18.4116 58.9787 18.4116C59.9087 18.4116 60.6857 18.7803 61.3089 19.5187C61.9297 20.2579 62.2413 21.2298 62.2413 22.4351ZM60.4554 22.4994C60.4554 21.7289 60.2819 21.0937 59.935 20.5937C59.5559 20.0723 59.0486 19.8116 58.4097 19.8116C57.9764 19.8116 57.5842 19.9568 57.2323 20.2431C56.8804 20.5318 56.651 20.9089 56.5433 21.3758C56.4898 21.5936 56.4619 21.7718 56.4619 21.912V23.232C56.4619 23.8079 56.6378 24.2938 56.9881 24.6906C57.34 25.0866 57.7972 25.2855 58.3612 25.2855C59.0215 25.2855 59.5354 25.0297 59.9029 24.5199C60.2713 24.0092 60.4554 23.336 60.4554 22.4994Z" fill="white"/>
<path d="M72.3877 23.4119C72.3877 24.3458 72.0646 25.1056 71.4159 25.6922C70.703 26.3332 69.7106 26.6533 68.4353 26.6533C67.2579 26.6533 66.314 26.4256 65.5994 25.9694L66.0056 24.5034C66.7752 24.9703 67.6197 25.2046 68.5397 25.2046C69.2 25.2046 69.7139 25.0545 70.083 24.7558C70.4506 24.4572 70.6339 24.0562 70.6339 23.5563C70.6339 23.1108 70.4826 22.7354 70.1792 22.431C69.8775 22.1266 69.3735 21.8436 68.6696 21.5821C66.7539 20.8651 65.7968 19.8149 65.7968 18.4339C65.7968 17.5313 66.1323 16.7913 66.804 16.2154C67.4733 15.6388 68.3662 15.3508 69.4828 15.3508C70.4785 15.3508 71.3057 15.5249 71.9659 15.8722L71.5277 17.3061C70.911 16.9695 70.2138 16.8012 69.4335 16.8012C68.8168 16.8012 68.335 16.9538 67.9897 17.2574C67.6978 17.5288 67.5514 17.8597 67.5514 18.2515C67.5514 18.6855 67.7183 19.0444 68.0538 19.3265C68.3457 19.5872 68.876 19.8694 69.6456 20.1738C70.5871 20.5541 71.2785 20.9988 71.7234 21.5086C72.1665 22.0168 72.3877 22.6529 72.3877 23.4119Z" fill="white"/>
<path d="M78.1835 19.8942H76.2513V23.7379C76.2513 24.7155 76.5917 25.2039 77.2741 25.2039C77.5874 25.2039 77.8472 25.1767 78.0527 25.1222L78.1013 26.4579C77.7559 26.5874 77.3012 26.6526 76.738 26.6526C76.0457 26.6526 75.5047 26.4406 75.1141 26.0174C74.7252 25.5933 74.5295 24.8822 74.5295 23.8831V19.8926H73.3784V18.5726H74.5295V17.123L76.2513 16.6016V18.5726H78.1835V19.8942Z" fill="white"/>
<path d="M86.9014 22.4673C86.9014 23.6842 86.5544 24.6832 85.8621 25.4645C85.1361 26.2689 84.1724 26.6698 82.9712 26.6698C81.8135 26.6698 80.8918 26.2846 80.2044 25.514C79.517 24.7435 79.1733 23.7708 79.1733 22.5984C79.1733 21.3717 79.5269 20.3668 80.2364 19.5856C80.9444 18.8035 81.8998 18.4124 83.1011 18.4124C84.2588 18.4124 85.1903 18.7977 85.8933 19.569C86.5659 20.3173 86.9014 21.2834 86.9014 22.4673ZM85.0826 22.5242C85.0826 21.7941 84.9272 21.1679 84.6123 20.6457C84.2448 20.0137 83.7194 19.6986 83.0386 19.6986C82.3339 19.6986 81.7987 20.0146 81.4311 20.6457C81.1162 21.1687 80.9608 21.8048 80.9608 22.5572C80.9608 23.2873 81.1162 23.9135 81.4311 24.4349C81.8102 25.0669 82.3397 25.382 83.023 25.382C83.6923 25.382 84.2177 25.0603 84.5967 24.4184C84.9198 23.8863 85.0826 23.2535 85.0826 22.5242Z" fill="white"/>
<path d="M92.5995 20.121C92.426 20.0888 92.241 20.0723 92.047 20.0723C91.4303 20.0723 90.9534 20.3058 90.618 20.7735C90.3261 21.186 90.1797 21.7074 90.1797 22.3369V26.4908H88.4276L88.444 21.0673C88.444 20.1548 88.4218 19.324 88.3782 18.5749H89.9051L89.9692 20.0896H90.0177C90.2027 19.5691 90.4946 19.15 90.8942 18.8356C91.2848 18.5527 91.7066 18.4116 92.1613 18.4116C92.3232 18.4116 92.4696 18.4231 92.5995 18.4437V20.121Z" fill="white"/>
<path d="M100.439 22.1579C100.439 22.4731 100.419 22.7387 100.375 22.9557H95.1163C95.1369 23.7378 95.3909 24.3359 95.8793 24.7484C96.3225 25.1172 96.8956 25.302 97.5994 25.302C98.3781 25.302 99.0885 25.1774 99.7273 24.9274L100.002 26.1484C99.2554 26.4751 98.374 26.6377 97.3569 26.6377C96.1334 26.6377 95.1731 26.2763 94.4742 25.5544C93.7769 24.8326 93.4275 23.8632 93.4275 22.6471C93.4275 21.4534 93.7523 20.4592 94.4026 19.6664C95.0834 18.82 96.0035 18.3967 97.1612 18.3967C98.2983 18.3967 99.1592 18.82 99.7438 19.6664C100.207 20.3388 100.439 21.1704 100.439 22.1579ZM98.7678 21.7017C98.7793 21.1803 98.665 20.7298 98.4274 20.3495C98.124 19.8603 97.6578 19.6161 97.0305 19.6161C96.4574 19.6161 95.9912 19.8545 95.6352 20.333C95.3433 20.7133 95.1698 21.1696 95.1163 21.7009H98.7678V21.7017Z" fill="white"/>
<path d="M40.33 8.75742C40.33 9.72845 40.0398 10.4594 39.4601 10.9503C38.9232 11.4032 38.1602 11.6301 37.1718 11.6301C36.6818 11.6301 36.2625 11.6086 35.9114 11.5657V6.26015C36.3694 6.1859 36.8627 6.14795 37.3955 6.14795C38.3369 6.14795 39.0465 6.35337 39.525 6.76422C40.0611 7.2287 40.33 7.89282 40.33 8.75742ZM39.4214 8.78135C39.4214 8.15187 39.2554 7.66925 38.9232 7.33265C38.591 6.99687 38.1059 6.82857 37.467 6.82857C37.1957 6.82857 36.9646 6.84672 36.7731 6.88467V10.9181C36.8791 10.9346 37.0732 10.942 37.3552 10.942C38.0146 10.942 38.5236 10.758 38.8821 10.3901C39.2406 10.0221 39.4214 9.4859 39.4214 8.78135Z" fill="white"/>
<path d="M45.1475 9.60556C45.1475 10.2037 44.9773 10.6937 44.6369 11.0782C44.28 11.4733 43.8073 11.6705 43.2169 11.6705C42.6479 11.6705 42.1949 11.4816 41.857 11.1021C41.5199 10.7234 41.3513 10.2457 41.3513 9.66991C41.3513 9.06766 41.5248 8.57349 41.8734 8.18986C42.222 7.80624 42.6907 7.61401 43.2811 7.61401C43.85 7.61401 44.3072 7.80294 44.6533 8.18161C44.9822 8.54956 45.1475 9.02476 45.1475 9.60556ZM44.2537 9.63361C44.2537 9.27474 44.1765 8.96701 44.0227 8.71044C43.8418 8.40024 43.5845 8.24514 43.2498 8.24514C42.9037 8.24514 42.6405 8.40024 42.4597 8.71044C42.3051 8.96701 42.2286 9.27969 42.2286 9.64929C42.2286 10.0081 42.3059 10.3159 42.4597 10.5724C42.6463 10.8826 42.9061 11.0377 43.2416 11.0377C43.5705 11.0377 43.8287 10.8802 44.0145 10.5642C44.174 10.3027 44.2537 9.99249 44.2537 9.63361Z" fill="white"/>
<path d="M51.6068 7.69312L50.394 11.5821H49.6047L49.1023 9.89338C48.9748 9.47181 48.8712 9.05272 48.7907 8.63692H48.775C48.7002 9.06427 48.5966 9.48253 48.4634 9.89338L47.9298 11.5821H47.1314L45.991 7.69312H46.8765L47.3148 9.54193C47.4208 9.97918 47.508 10.3958 47.5779 10.7901H47.5935C47.6576 10.4651 47.7637 10.0509 47.9134 9.55019L48.4634 7.69393H49.1656L49.6926 9.51058C49.8201 9.95361 49.9237 10.3801 50.0034 10.791H50.0273C50.0857 10.3908 50.1736 9.96433 50.2904 9.51058L50.7607 7.69393H51.6068V7.69312Z" fill="white"/>
<path d="M56.0739 11.5823H55.2122V9.3548C55.2122 8.6684 54.9524 8.3252 54.4311 8.3252C54.1754 8.3252 53.969 8.41925 53.8087 8.60817C53.65 8.7971 53.5694 9.01985 53.5694 9.27477V11.5815H52.7078V8.80452C52.7078 8.46297 52.6971 8.09255 52.6765 7.6916H53.4338L53.4741 8.29962H53.4979C53.5982 8.1107 53.7479 7.95477 53.9444 7.8302C54.1779 7.685 54.4394 7.61157 54.7255 7.61157C55.0873 7.61157 55.3882 7.72872 55.6275 7.96385C55.9251 8.25177 56.0739 8.6816 56.0739 9.2525V11.5823Z" fill="white"/>
<path d="M58.4502 11.5822H57.5894V5.90869H58.4502V11.5822Z" fill="white"/>
<path d="M63.5233 9.60556C63.5233 10.2037 63.353 10.6937 63.0126 11.0782C62.6558 11.4733 62.1823 11.6705 61.5927 11.6705C61.0229 11.6705 60.5698 11.4816 60.2327 11.1021C59.8956 10.7234 59.7271 10.2457 59.7271 9.66991C59.7271 9.06766 59.9005 8.57349 60.2491 8.18986C60.5978 7.80624 61.0664 7.61401 61.656 7.61401C62.2258 7.61401 62.6821 7.80294 63.0291 8.18161C63.358 8.54956 63.5233 9.02476 63.5233 9.60556ZM62.6287 9.63361C62.6287 9.27474 62.5514 8.96701 62.3976 8.71044C62.2175 8.40024 61.9594 8.24514 61.6255 8.24514C61.2786 8.24514 61.0154 8.40024 60.8354 8.71044C60.6808 8.96701 60.6044 9.27969 60.6044 9.64929C60.6044 10.0081 60.6816 10.3159 60.8354 10.5724C61.022 10.8826 61.2818 11.0377 61.6173 11.0377C61.9462 11.0377 62.2036 10.8802 62.3895 10.5642C62.5498 10.3027 62.6287 9.99249 62.6287 9.63361Z" fill="white"/>
<path d="M67.6937 11.5822H66.92L66.8558 11.1343H66.832C66.5672 11.4915 66.1898 11.6705 65.6998 11.6705C65.3339 11.6705 65.0379 11.5525 64.8151 11.3182C64.6128 11.1054 64.5117 10.8406 64.5117 10.5262C64.5117 10.051 64.709 9.68889 65.1061 9.43809C65.5024 9.18729 66.0599 9.06436 66.7777 9.07014V8.99754C66.7777 8.48521 66.5097 8.22946 65.9728 8.22946C65.5904 8.22946 65.2533 8.32599 64.9622 8.51739L64.7871 7.94979C65.1472 7.72621 65.5921 7.61401 66.1166 7.61401C67.1296 7.61401 67.6378 8.15026 67.6378 9.22276V10.6549C67.6378 11.0435 67.6567 11.3529 67.6937 11.5822ZM66.7991 10.2457V9.64599C65.8486 9.62949 65.3734 9.89101 65.3734 10.4297C65.3734 10.6327 65.4276 10.7845 65.5386 10.8859C65.6496 10.9874 65.791 11.0377 65.9596 11.0377C66.1487 11.0377 66.3255 10.9775 66.4866 10.8579C66.6486 10.7374 66.7481 10.5848 66.7851 10.3975C66.7942 10.3555 66.7991 10.3043 66.7991 10.2457Z" fill="white"/>
<path d="M72.5899 11.5822H71.8252L71.7849 10.9577H71.7611C71.5169 11.4329 71.1009 11.6705 70.5163 11.6705C70.0492 11.6705 69.6603 11.4865 69.352 11.1186C69.0437 10.7506 68.8899 10.273 68.8899 9.68636C68.8899 9.05689 69.0568 8.54704 69.3923 8.15764C69.7171 7.79464 70.115 7.61314 70.5886 7.61314C71.1091 7.61314 71.4733 7.78886 71.6805 8.14114H71.697V5.90869H72.5595V10.5345C72.5595 10.9132 72.5693 11.2621 72.5899 11.5822ZM71.697 9.94211V9.29366C71.697 9.18146 71.6887 9.09071 71.6731 9.02141C71.6246 8.81351 71.5202 8.63861 71.3615 8.49754C71.2012 8.35646 71.0079 8.28551 70.7851 8.28551C70.4636 8.28551 70.212 8.41339 70.027 8.66996C69.8437 8.92654 69.7508 9.25406 69.7508 9.65419C69.7508 10.0387 69.8387 10.3505 70.0155 10.5906C70.2022 10.8463 70.4538 10.9742 70.7687 10.9742C71.0515 10.9742 71.2776 10.8678 71.4495 10.6541C71.6156 10.4569 71.697 10.2193 71.697 9.94211Z" fill="white"/>
<path d="M79.9595 9.60556C79.9595 10.2037 79.7893 10.6937 79.4489 11.0782C79.092 11.4733 78.6201 11.6705 78.0289 11.6705C77.4607 11.6705 77.0077 11.4816 76.6689 11.1021C76.3318 10.7234 76.1633 10.2457 76.1633 9.66991C76.1633 9.06766 76.3367 8.57349 76.6854 8.18986C77.034 7.80624 77.5027 7.61401 78.0938 7.61401C78.662 7.61401 79.12 7.80294 79.4653 8.18161C79.7942 8.54956 79.9595 9.02476 79.9595 9.60556ZM79.0665 9.63361C79.0665 9.27474 78.9892 8.96701 78.8355 8.71044C78.6538 8.40024 78.3972 8.24514 78.0618 8.24514C77.7164 8.24514 77.4533 8.40024 77.2716 8.71044C77.117 8.96701 77.0406 9.27969 77.0406 9.64929C77.0406 10.0081 77.1179 10.3159 77.2716 10.5724C77.4583 10.8826 77.7181 11.0377 78.0535 11.0377C78.3824 11.0377 78.6414 10.8802 78.8273 10.5642C78.9859 10.3027 79.0665 9.99249 79.0665 9.63361Z" fill="white"/>
<path d="M84.5926 11.5823H83.7317V9.3548C83.7317 8.6684 83.4719 8.3252 82.9498 8.3252C82.6941 8.3252 82.4877 8.41925 82.3282 8.60817C82.1687 8.7971 82.0889 9.01985 82.0889 9.27477V11.5815H81.2264V8.80452C81.2264 8.46297 81.2166 8.09255 81.196 7.6916H81.9524L81.9927 8.29962H82.0166C82.1177 8.1107 82.2674 7.95477 82.463 7.8302C82.6974 7.685 82.958 7.61157 83.245 7.61157C83.6059 7.61157 83.9069 7.72872 84.1461 7.96385C84.4446 8.25177 84.5926 8.6816 84.5926 9.2525V11.5823Z" fill="white"/>
<path d="M90.3919 8.34079H89.4431V10.23C89.4431 10.7102 89.6115 10.9503 89.9454 10.9503C90.0999 10.9503 90.2283 10.9371 90.3294 10.9098L90.3516 11.5657C90.1814 11.6301 89.9578 11.6622 89.6824 11.6622C89.342 11.6622 89.0772 11.5583 88.8856 11.3504C88.6932 11.1425 88.5978 10.7927 88.5978 10.3018V8.34079H88.0312V7.69316H88.5978V6.98036L89.4423 6.72461V7.69234H90.3911V8.34079H90.3919Z" fill="white"/>
<path d="M94.9536 11.5822H94.0911V9.37121C94.0911 8.67409 93.8313 8.32511 93.3108 8.32511C92.9112 8.32511 92.6382 8.52724 92.4886 8.93149C92.4631 9.01646 92.4483 9.12041 92.4483 9.24251V11.5814H91.5874V5.90869H92.4483V8.25251H92.4647C92.7361 7.82599 93.125 7.61314 93.629 7.61314C93.9858 7.61314 94.281 7.73029 94.5153 7.96541C94.8072 8.25829 94.9536 8.69389 94.9536 9.26974V11.5822Z" fill="white"/>
<path d="M99.6591 9.45362C99.6591 9.60872 99.6476 9.73908 99.627 9.8455H97.0428C97.0543 10.23 97.1776 10.5228 97.4169 10.7258C97.6356 10.9073 97.9176 10.998 98.2629 10.998C98.6453 10.998 98.9939 10.937 99.308 10.8141L99.4428 11.4147C99.0753 11.5747 98.6428 11.6547 98.1421 11.6547C97.5418 11.6547 97.0691 11.4774 96.727 11.1226C96.3833 10.7679 96.2131 10.2918 96.2131 9.69452C96.2131 9.10794 96.3718 8.61955 96.6917 8.23015C97.0255 7.81435 97.4769 7.60645 98.0467 7.60645C98.6042 7.60645 99.0276 7.81435 99.3137 8.23015C99.5448 8.56015 99.6591 8.96852 99.6591 9.45362ZM98.8368 9.23005C98.8434 8.97348 98.7867 8.75237 98.6699 8.56592C98.5203 8.32584 98.2925 8.20539 97.9842 8.20539C97.703 8.20539 97.4736 8.32255 97.2985 8.55768C97.1554 8.74495 97.0707 8.96853 97.0428 9.23005H98.8368Z" fill="white"/>
</svg>
