<svg width="36" height="36" viewBox="0 0 36 36" fill="none" xmlns="http://www.w3.org/2000/svg">
<path d="M17.9999 22.0899C20.2588 22.0899 22.0899 20.2588 22.0899 17.9999C22.0899 15.7411 20.2588 13.9099 17.9999 13.9099C15.7411 13.9099 13.9099 15.7411 13.9099 17.9999C13.9099 20.2588 15.7411 22.0899 17.9999 22.0899Z" fill="#0043CE"/>
<path d="M18.0001 7.83008C15.9886 7.83008 14.0224 8.42654 12.3499 9.54403C10.6775 10.6615 9.37397 12.2499 8.60423 14.1082C7.83448 15.9665 7.63308 18.0114 8.0255 19.9841C8.41791 21.9569 9.38651 23.7691 10.8088 25.1914C12.2311 26.6137 14.0432 27.5823 16.016 27.9747C17.9888 28.3671 20.0336 28.1657 21.892 27.3959C23.7503 26.6262 25.3386 25.3227 26.4561 23.6502C27.5736 21.9778 28.1701 20.0115 28.1701 18.0001C28.1674 15.3036 27.0951 12.7184 25.1884 10.8117C23.2818 8.90506 20.6965 7.83273 18.0001 7.83008ZM18.0001 23.8301C16.835 23.83 15.6962 23.4839 14.7282 22.8355C13.7602 22.1872 13.0066 21.2659 12.5631 20.1886C12.1195 19.1112 12.006 17.9264 12.237 16.7844C12.468 15.6425 13.033 14.5949 13.8603 13.7746C14.6876 12.9543 15.74 12.3982 16.8839 12.177C18.0278 11.9558 19.2116 12.0794 20.2851 12.5321C21.3586 12.9849 22.2735 13.7463 22.9135 14.7198C23.5536 15.6933 23.89 16.835 23.8801 18.0001C23.8801 19.5596 23.2606 21.0552 22.1579 22.1579C21.0552 23.2606 19.5596 23.8801 18.0001 23.8801V23.8301Z" fill="#0043CE"/>
<path d="M18 2C14.8355 2 11.7421 2.93838 9.11088 4.69649C6.4797 6.45459 4.42894 8.95345 3.21793 11.8771C2.00693 14.8007 1.69008 18.0177 2.30744 21.1214C2.92481 24.2251 4.44866 27.0761 6.6863 29.3137C8.92394 31.5513 11.7749 33.0752 14.8786 33.6926C17.9823 34.3099 21.1993 33.9931 24.1229 32.7821C27.0466 31.5711 29.5454 29.5203 31.3035 26.8891C33.0616 24.2579 34 21.1645 34 18C34 13.7565 32.3143 9.68687 29.3137 6.68629C26.3131 3.68571 22.2435 2 18 2ZM18 29.83C15.6603 29.83 13.373 29.1362 11.4276 27.8363C9.48218 26.5364 7.9659 24.6888 7.07051 22.5271C6.17513 20.3655 5.94085 17.9869 6.39732 15.6921C6.85378 13.3973 7.98048 11.2894 9.63493 9.63493C11.2894 7.98047 13.3973 6.85377 15.6921 6.39731C17.9869 5.94085 20.3655 6.17512 22.5272 7.07051C24.6888 7.96589 26.5364 9.48217 27.8363 11.4276C29.1362 13.373 29.83 15.6602 29.83 18C29.8247 21.1359 28.5766 24.1418 26.3592 26.3592C24.1418 28.5766 21.1359 29.8247 18 29.83Z" fill="#0043CE"/>
</svg>
