<svg width="36" height="36" viewBox="0 0 36 36" fill="none" xmlns="http://www.w3.org/2000/svg">
<path d="M26.5 4.08008C22.77 4.08008 19 5.40008 19 7.91008V9.48008C24.3 9.74008 28 12.0801 28 15.2401V21.9401L28.05 22.0001C31.18 21.6801 33.95 20.4001 33.95 18.2501V7.91008C34 5.40008 30.23 4.08008 26.5 4.08008Z" fill="#0043CE"/>
<path d="M17 9.48007V7.91007C17 5.39007 13.23 4.07007 9.5 4.07007C5.77 4.07007 2 5.40007 2 7.91007V18.2401C2 20.4001 4.77 21.6701 7.9 22.0001L8 21.9301V15.2301C8 12.0801 11.7 9.74007 17 9.48007Z" fill="#0043CE"/>
<path d="M18.0001 10.8501C13.0701 10.8501 9.3501 12.7301 9.3501 15.2301V27.5401C9.3501 30.0401 13.0701 31.9201 18.0001 31.9201C22.9301 31.9201 26.6501 30.0401 26.6501 27.5401V25.3801C24.1505 27.2154 21.098 28.14 18.0001 28.0001C15.9559 28.0353 13.9224 27.6964 12.0001 27.0001V25.2701C13.8942 26.082 15.9397 26.4809 18.0001 26.4401C22.2101 26.4401 25.6501 25.2101 26.6301 23.2101V20.4701C24.8001 22.0001 21.7201 23.0001 18.0001 23.0001C15.9559 23.0353 13.9224 22.6964 12.0001 22.0001V20.2301C13.8942 21.042 15.9397 21.4409 18.0001 21.4001C22.2101 21.4001 25.6501 20.2901 26.6301 18.2901V15.2301C26.6501 12.7301 22.9301 10.8501 18.0001 10.8501Z" fill="#0043CE"/>
</svg>
