<svg width="40" height="32" viewBox="0 0 40 32" fill="none" xmlns="http://www.w3.org/2000/svg">
<g clip-path="url(#clip0)">
<path d="M30.499 12.0008H20.999V15.5008C20.999 17.9821 18.9802 20.0008 16.499 20.0008C14.0177 20.0008 11.999 17.9821 11.999 15.5008V7.90085L7.94273 10.3383C6.73648 11.0571 5.99898 12.3633 5.99898 13.7633V16.7196L0.998984 19.6071C0.0427341 20.1571 -0.288516 21.3821 0.267734 22.3383L5.26773 31.0008C5.81773 31.9571 7.04273 32.2821 7.99898 31.7321L14.4615 28.0008H22.999C25.2052 28.0008 26.999 26.2071 26.999 24.0008H27.999C29.1052 24.0008 29.999 23.1071 29.999 22.0008V18.0008H30.499C31.3302 18.0008 31.999 17.3321 31.999 16.5008V13.5008C31.999 12.6696 31.3302 12.0008 30.499 12.0008ZM39.7302 9.66335L34.7302 1.00085C34.1802 0.0445952 32.9552 -0.280405 31.999 0.269595L25.5365 4.00085H19.149C18.399 4.00085 17.6677 4.21335 17.0302 4.6071L14.9365 5.91335C14.349 6.27585 13.999 6.9196 13.999 7.6071V15.5008C13.999 16.8821 15.1177 18.0008 16.499 18.0008C17.8802 18.0008 18.999 16.8821 18.999 15.5008V10.0008H30.499C32.4302 10.0008 33.999 11.5696 33.999 13.5008V15.2821L38.999 12.3946C39.9552 11.8383 40.2802 10.6196 39.7302 9.66335Z" fill="#0043CE"/>
</g>
<defs>
<clipPath id="clip0">
<rect width="40" height="32" fill="white"/>
</clipPath>
</defs>
</svg>
